# xmcd CD database file
# Copyright (C) 1997 Ti Kan
# 
# Track frame offsets:
#     183
#     12795
#     26183
#     40950
#     51108
#     64545
#     78723
#     90768
#     103470
#     117533
#     131233
#     143495
#     156945
#     168833
#     180660
#     193020
#     202120
#     214553
#     227095
#     241325
# 
# Disc length: 3376 seconds
# 
# Revision: 1
# Processed by: cddbd v1.4b41PL1 Copyright (c) Steve Scherf et al.
# Submitted via: DiscPlay 4.0.4
# 
DISCID=170d2e14
DTITLE=Dionne Warwick - Dionne Warwick 20 Greatest Hits
DYEAR=1900
DGENRE=
TTITLE0=Walk On By
TTITLE1=I Say A Little Prayer
TTITLE2=(Theme From) Valley Of The Dolls
TTITLE3=I'll Never Fall In Love Again
TTITLE4=Anyone Who Had A Heart
TTITLE5=Message To Michael
TTITLE6=Do You Know The Way To San Jose?
TTITLE7=Are You There With Another Girl?
TTITLE8=Who Can I Turn To?
TTITLE9=A House Is Not A Home
TTITLE10=Don't Make Me Over
TTITLE11=You'll Never Get To Heaven
TTITLE12=Make It Easy On Yourself
TTITLE13=Reach Out For Me
TTITLE14=Alfie
TTITLE15=You've Lost That Lovin' Feeling
TTITLE16=Trains And Boats And Planes
TTITLE17=I Just Don't Know What To Do With Myself
TTITLE18=The Window Of The World
TTITLE19=Promises, Promises
EXTD=
EXTT0=
EXTT1=
EXTT2=
EXTT3=
EXTT4=
EXTT5=
EXTT6=
EXTT7=
EXTT8=
EXTT9=
EXTT10=
EXTT11=
EXTT12=
EXTT13=
EXTT14=
EXTT15=
EXTT16=
EXTT17=
EXTT18=
EXTT19=
PLAYORDER=
